<?xml version="1.0" encoding="utf-8"?>
<!-- Generator: Adobe Illustrator 25.4.5, SVG Export Plug-In . SVG Version: 6.00 Build 0)  -->
<svg version="1.1" id="Lager_1" xmlns="http://www.w3.org/2000/svg" xmlns:xlink="http://www.w3.org/1999/xlink" x="0px" y="0px"
	 viewBox="0 0 500 500" style="enable-background:new 0 0 500 500;" xml:space="preserve">
<g>
	<path d="M60.5,355v101h38.3h38.3l-0.5-100.6L136,255.2l-37.6-0.7L60.5,254V355z"/>
	<path d="M162,255.6c-0.9,0.7-1.6,38.3-1.6,83.4c0,75.9,0.2,82,4.2,83.1c19.3,5.8,126.8,33.9,129.6,33.9c1.9,0,35.5-11.1,74.5-24.8
		l70.8-24.8l-1.4-8.1c-2.3-14.2-13-28.3-26.7-35.5l-12.3-6.5h-55.5h-55.3l-25.8-9.8c-14.6-5.6-25.5-10.9-25.5-12.5
		c0-1.9,1.6-7.2,3.7-12.3l3.5-9.1l23.2,9.1c20.4,7.9,25.8,9.1,42.5,9.1c15.8,0,20-0.7,23-4.2c4.6-5.1,5.1-17.4,0.9-21.1
		c-1.6-1.4-32.5-13.5-68.3-26.9C202.9,254.9,199.8,254,182,254C171.7,254,162.7,254.7,162,255.6z"/>
</g>
<g>
	<path d="M361.5,34.2c-3,3-8.4,9.1-12,13.3c-3.5,4.3-6.9,8.2-7.4,8.7c-0.4,0.5-3.9,4.4-7.5,8.7c-3.7,4.3-15.4,17.8-26,30
		c-10.6,12.3-21.3,24.7-23.8,27.6c-5.7,6.7-8.6,10.1-12.8,14.8c-9.6,10.8-18.4,21.2-19.2,22.8c-0.6,1-1,4.3-1,7.4
		c0,6.9,2.2,10.7,7.7,13.3c3.5,1.7,4.4,1.7,54.9,1.7h51.2l2-2.1c2.7-2.6,2.6-5.8-0.1-8.2l-2.2-2.1l-50.8-0.2l-50.8-0.2l-0.2-2.1
		c-0.2-1.6,0.8-3.4,4.1-7c2.4-2.7,6.3-7.2,8.6-9.9c7.4-8.6,26.8-31,34-39.3c3.9-4.4,9.9-11.4,13.3-15.4c6.7-7.8,19.4-22.6,36.9-42.6
		c6-6.9,11.3-12.6,11.8-12.6c1.2,0,0.9,3.4-0.8,8.7c-0.9,2.6-3.7,12.4-6.3,21.8s-5.4,19.1-6.2,21.8c-5.5,18.4-6,22.2-3.5,24.6
		c1.7,1.6,5.3,1.8,7.6,0.6c1.5-0.8,2.2-2.7,5.8-15.2c1-3.6,2.6-9,3.4-11.9c10-34.9,13.1-46.9,13.1-50.5c0-4-0.2-4.4-4.1-8.2
		c-4-3.9-4.3-4-9.1-4h-5.1L361.5,34.2z"/>
	<path d="M318,132c-2.6,1.8-2.6,6.3-0.1,8.7c1.7,1.6,2.6,1.6,54.4,1.6c51.8,0,52.5,0,53.4,1.6c0.5,0.9,0.7,2.1,0.3,2.7
		c-0.6,0.9-5,6.1-31.1,36.3c-6.3,7.3-15.7,18.3-21,24.4c-5.3,6.1-11.2,13-13.3,15.2c-2.1,2.3-12.6,14.5-23.4,27
		c-10.9,12.5-20.1,22.8-20.5,22.8c-0.9,0-0.2-4.4,1.9-11.1c0.8-2.7,2.5-8.7,3.7-13.2s4.8-17.2,7.9-28.2s5.7-20.5,5.7-21.3
		c0-2-3.8-5.4-6-5.4c-4.2,0-5.4,2.1-9.6,17.3c-2.2,7.9-4.8,16.8-5.6,19.8c-0.9,3-2.4,8.2-3.4,11.5c-0.9,3.4-3,10.7-4.6,16.2
		c-3.4,11.8-3.6,16-1.1,19.6c2.9,4.3,6.3,6.2,11.3,6.2c5.6,0,8-1.3,12.9-7.2c3.8-4.5,9.1-10.7,30.4-35.3c5.1-5.9,14.6-16.8,21-24.3
		c6.4-7.5,15.9-18.5,21-24.3c25-28.7,32.4-37.4,34-39.7c1.4-2,1.8-3.7,1.8-7.7c0-5.5-1.7-9-6.2-12.5l-2.5-1.9l-54.8-0.2
		C325.8,130.8,319.6,130.8,318,132z"/>
</g>
</svg>
