<?xml version="1.0" standalone="no"?>
<!DOCTYPE svg PUBLIC "-//W3C//DTD SVG 20010904//EN"
 "http://www.w3.org/TR/2001/REC-SVG-20010904/DTD/svg10.dtd">
<svg version="1.0" xmlns="http://www.w3.org/2000/svg"
 width="500.000000pt" height="500.000000pt" viewBox="0 0 500.000000 500.000000"
 preserveAspectRatio="xMidYMid meet">

<g transform="translate(0.000000,500.000000) scale(0.100000,-0.100000)"
fill="#000000" stroke="none">
<path d="M1515 4341 c-77 -19 -152 -88 -173 -160 -41 -134 20 -243 273 -489
l146 -143 57 49 c99 86 278 276 315 333 70 110 82 200 38 287 -69 134 -237
168 -367 74 l-39 -29 -39 29 c-40 29 -124 59 -160 57 -12 -1 -34 -4 -51 -8z"/>
<path d="M570 3265 l0 -435 165 0 165 0 -2 433 -3 432 -162 3 -163 2 0 -435z"/>
<path d="M1007 3693 c-4 -3 -7 -165 -7 -359 0 -327 1 -353 18 -358 83 -25 546
-146 558 -146 8 0 153 48 321 107 l305 107 -6 35 c-10 61 -56 122 -115 153
l-53 28 -239 0 -238 0 -111 42 c-63 24 -110 47 -110 54 0 8 7 31 16 53 l15 39
100 -39 c88 -34 111 -39 183 -39 68 0 86 3 99 18 20 22 22 75 4 91 -7 6 -140
58 -294 116 -270 101 -283 105 -360 105 -44 0 -83 -3 -86 -7z"/>
<path d="M3571 3522 c-36 -37 -102 -110 -146 -162 -43 -52 -84 -100 -90 -106
-5 -6 -47 -53 -91 -105 -45 -52 -187 -216 -315 -364 -129 -149 -259 -300 -289
-335 -69 -81 -104 -122 -155 -180 -116 -131 -223 -257 -233 -277 -7 -12 -12
-52 -12 -90 0 -84 27 -130 93 -162 43 -21 53 -21 666 -21 l622 0 24 25 c33 32
32 70 -1 100 l-27 25 -616 2 -616 3 -3 26 c-2 19 10 41 50 85 29 33 76 87 104
120 90 104 325 376 413 477 47 54 120 138 161 187 81 95 236 274 448 517 73
84 137 153 143 153 14 0 11 -41 -10 -106 -11 -32 -45 -151 -76 -264 -31 -113
-65 -232 -75 -265 -67 -223 -73 -270 -42 -298 21 -19 64 -22 92 -7 18 10 27
33 70 185 12 44 31 109 41 145 121 423 159 569 159 613 0 48 -3 54 -50 99 -49
47 -52 48 -111 48 l-62 0 -66 -68z"/>
<path d="M3043 2335 c-31 -22 -31 -77 -1 -105 21 -20 32 -20 660 -20 629 0
637 0 648 -20 6 -11 8 -26 4 -33 -7 -11 -61 -74 -378 -441 -76 -89 -191 -222
-255 -296 -64 -74 -136 -158 -161 -185 -25 -28 -153 -176 -284 -328 -132 -152
-244 -277 -249 -277 -11 0 -2 54 23 135 10 33 30 105 45 160 15 55 58 209 96
342 38 133 69 249 69 258 0 24 -46 65 -73 65 -51 0 -65 -26 -117 -210 -27 -96
-58 -204 -68 -240 -11 -36 -29 -99 -41 -140 -11 -41 -37 -130 -56 -197 -41
-143 -44 -194 -13 -238 35 -52 77 -75 137 -75 68 0 97 16 157 87 46 55 111
130 369 428 62 72 177 204 255 295 78 91 193 224 255 295 303 348 393 454 413
482 17 24 22 45 22 93 0 67 -21 109 -75 152 l-30 23 -665 3 c-592 2 -667 1
-687 -13z"/>
</g>
</svg>
